<svg width="1920" height="1080" viewBox="0 0 1920 1080" fill="none" xmlns="http://www.w3.org/2000/svg">
<g clip-path="url(#clip0)">
<rect width="1920" height="1080" fill="#37694C"/>
<g filter="url(#filter0_d)">
<path d="M981.069 59C994.548 86.1986 1005.68 111.309 1014.46 134.62C1029.06 173.42 1037.16 207.236 1038.72 237.405C1040.66 274.776 1032.58 306.55 1014.46 335.266C984.281 383.084 926.267 422.421 840.312 465C812.499 396.525 795.776 340.609 791.252 293.57C786.317 242.261 795.893 201.516 821.419 166.557C838.929 142.576 863.945 121.318 896.929 101.242C920.758 86.7384 948.747 72.8514 981.069 59Z" fill="#285B4B"/>
<path d="M840.312 465L874.228 367.171M840.312 465C926.267 422.421 984.281 383.084 1014.46 335.266M840.312 465C812.499 396.525 795.776 340.609 791.252 293.57M981.069 59L948.234 153.709M981.069 59C994.548 86.1986 1005.68 111.309 1014.46 134.62M981.069 59C948.747 72.8514 920.758 86.7384 896.929 101.242M948.234 153.709L1014.46 134.62M948.234 153.709L896.929 101.242M948.234 153.709L908.145 269.342M1014.46 134.62C1029.06 173.42 1037.16 207.236 1038.72 237.405M896.929 101.242C863.945 121.318 838.929 142.576 821.419 166.557M908.145 269.342L1038.72 237.405M908.145 269.342L821.419 166.557M908.145 269.342L874.228 367.171M1038.72 237.405C1040.66 274.776 1032.58 306.55 1014.46 335.266M821.419 166.557C795.893 201.516 786.317 242.261 791.252 293.57M874.228 367.171L1014.46 335.266M874.228 367.171L791.252 293.57" stroke="#33674D"/>
</g>
<g filter="url(#filter1_d)">
<path d="M1483.03 168.003C1468.97 206.333 1454.81 240.536 1440.26 270.889C1416.04 321.409 1390.75 361.263 1363.1 391.727C1328.85 429.463 1290.98 452.792 1247.01 464.137C1173.79 483.028 1083.68 468.691 965.291 432.321C1006.2 341.334 1045 272.425 1086.24 223.048C1131.21 169.188 1179.07 138.566 1235.72 127.875C1274.58 120.541 1317.58 122.586 1366.6 132.943C1402.02 140.426 1440.59 152.246 1483.03 168.003Z" fill="#6F9852"/>
<path d="M965.291 432.321L1090.05 368.631M965.291 432.321C1083.68 468.691 1173.79 483.028 1247.01 464.137M965.291 432.321C1006.2 341.334 1045 272.425 1086.24 223.048M1483.03 168.003L1362.26 229.661M1483.03 168.003C1468.97 206.333 1454.81 240.536 1440.26 270.889M1483.03 168.003C1440.59 152.246 1402.02 140.426 1366.6 132.943M1362.26 229.661L1440.26 270.889M1362.26 229.661L1366.6 132.943M1362.26 229.661L1214.8 304.942M1440.26 270.889C1416.04 321.409 1390.75 361.263 1363.1 391.727M1366.6 132.943C1317.58 122.586 1274.58 120.541 1235.72 127.875M1214.8 304.942L1363.1 391.727M1214.8 304.942L1235.72 127.875M1214.8 304.942L1090.05 368.631M1363.1 391.727C1328.85 429.463 1290.98 452.792 1247.01 464.137M1235.72 127.875C1179.07 138.566 1131.21 169.188 1086.24 223.048M1090.05 368.631L1247.01 464.137M1090.05 368.631L1086.24 223.048" stroke="#2F6042"/>
</g>
<g filter="url(#filter2_d)">
<path d="M671.752 893C654.591 855.954 640.422 821.752 629.248 790C610.65 737.153 600.348 691.092 598.358 650C595.892 599.098 606.179 555.82 629.248 516.707C667.662 451.575 741.519 397.995 850.949 340C886.357 433.267 907.646 509.43 913.406 573.5C919.689 643.386 907.497 698.884 875.001 746.5C852.708 779.164 820.861 808.118 778.869 835.463C748.533 855.218 712.901 874.133 671.752 893Z" fill="#6F9852"/>
<path d="M850.949 340L807.77 473.25M850.949 340C741.519 397.995 667.662 451.575 629.248 516.707M850.949 340C886.357 433.267 907.646 509.43 913.406 573.5M671.752 893L713.553 764M671.752 893C654.591 855.954 640.422 821.752 629.248 790M671.752 893C712.901 874.133 748.533 855.218 778.869 835.463M713.553 764L629.248 790M713.553 764L778.869 835.463M713.553 764L764.591 606.5M629.248 790C610.65 737.153 600.348 691.092 598.358 650M778.869 835.463C820.861 808.118 852.708 779.164 875.001 746.5M764.591 606.5L598.358 650M764.591 606.5L875.001 746.5M764.591 606.5L807.77 473.25M598.358 650C595.892 599.098 606.179 555.82 629.248 516.707M875.001 746.5C907.497 698.884 919.689 643.386 913.406 573.5M807.77 473.25L629.248 516.707M807.77 473.25L913.406 573.5" stroke="#2F6042"/>
</g>
<g filter="url(#filter3_d)">
<path d="M1684.92 461.356C1691.91 501.582 1696.75 538.285 1699.32 571.847C1703.61 627.707 1701.64 674.865 1692.92 715.072C1682.13 764.877 1660.99 804.019 1628.59 835.828C1574.62 888.798 1489.42 921.437 1368.71 949.133C1358.64 849.88 1357.79 770.802 1368.81 707.424C1380.83 638.294 1406.97 587.842 1450.68 550.259C1480.67 524.478 1518.93 504.753 1566.56 489.208C1600.98 477.978 1640.29 468.93 1684.92 461.356Z" fill="#6F9852"/>
<path d="M1368.71 949.133L1444.9 831.599M1368.71 949.133C1489.42 921.437 1574.62 888.798 1628.59 835.828M1368.71 949.133C1358.64 849.88 1357.79 770.802 1368.81 707.424M1684.92 461.356L1611.16 575.141M1684.92 461.356C1691.91 501.582 1696.75 538.285 1699.32 571.847M1684.92 461.356C1640.29 468.93 1600.98 477.978 1566.56 489.208M1611.16 575.141L1699.32 571.847M1611.16 575.141L1566.56 489.208M1611.16 575.141L1521.1 714.065M1699.32 571.847C1703.61 627.707 1701.64 674.865 1692.92 715.072M1566.56 489.208C1518.93 504.753 1480.67 524.478 1450.68 550.259M1521.1 714.065L1692.92 715.072M1521.1 714.065L1450.68 550.259M1521.1 714.065L1444.9 831.599M1692.92 715.072C1682.13 764.877 1660.99 804.019 1628.59 835.828M1450.68 550.259C1406.97 587.842 1380.83 638.294 1368.81 707.424M1444.9 831.599L1628.59 835.828M1444.9 831.599L1368.81 707.424" stroke="#2F6042"/>
</g>
<path d="M1303 904.5C999.476 904.5 483.555 842.467 266 1080H1920.5V663C1815.59 879.577 1477 904.5 1303 904.5Z" fill="#FFF9EB" stroke="#FFF9EB"/>
<g filter="url(#filter4_d)">
<path d="M97.0026 77.1503C135.333 91.2117 169.536 105.377 199.889 119.928C250.409 144.146 290.263 169.431 320.727 197.08C358.463 231.329 381.792 269.206 393.137 313.175C412.028 386.393 397.691 476.505 361.321 594.892C270.334 553.979 201.425 515.178 152.048 473.947C98.1882 428.973 67.5661 381.108 56.8751 324.46C49.5412 285.6 51.5864 242.607 61.9435 193.579C69.4259 158.158 81.2464 119.588 97.0026 77.1503Z" fill="#6F9852"/>
<path d="M361.321 594.892L297.631 470.138M361.321 594.892C397.691 476.505 412.028 386.393 393.137 313.175M361.321 594.892C270.334 553.979 201.425 515.178 152.048 473.947M97.0026 77.1503L158.661 197.925M97.0026 77.1503C135.333 91.2117 169.536 105.377 199.889 119.928M97.0026 77.1503C81.2463 119.588 69.4259 158.158 61.9435 193.579M158.661 197.925L199.889 119.928M158.661 197.925L61.9435 193.579M158.661 197.925L233.942 345.383M199.889 119.928C250.409 144.146 290.263 169.431 320.727 197.08M61.9435 193.579C51.5864 242.607 49.5412 285.6 56.8751 324.46M233.942 345.383L320.727 197.08M233.942 345.383L56.8751 324.46M233.942 345.383L297.631 470.138M320.727 197.08C358.463 231.329 381.792 269.206 393.137 313.175M56.8751 324.46C67.5661 381.108 98.1882 428.973 152.048 473.947M297.631 470.138L393.137 313.175M297.631 470.138L152.048 473.947" stroke="#2F6042"/>
</g>
<g filter="url(#filter5_d)">
<path d="M1096.13 429.912C1127.85 440.731 1156.11 451.739 1181.15 463.164C1222.81 482.179 1255.53 502.35 1280.33 524.73C1311.06 552.452 1329.64 583.564 1338.05 620.068C1352.05 680.854 1337.84 756.592 1304.5 856.526C1229.39 824.542 1172.7 793.779 1132.4 760.503C1088.45 724.206 1064.02 684.918 1056.47 637.791C1051.29 605.463 1054.06 569.446 1063.93 528.175C1071.06 498.36 1081.9 465.802 1096.13 429.912Z" fill="#285B4B"/>
<path d="M1304.5 856.526L1254.29 753.73M1304.5 856.526C1337.84 756.592 1352.05 680.854 1338.05 620.068M1304.5 856.526C1229.39 824.542 1172.7 793.779 1132.4 760.503M1096.13 429.912L1144.73 529.429M1096.13 429.912C1127.85 440.731 1156.11 451.739 1181.15 463.164M1096.13 429.912C1081.9 465.802 1071.06 498.36 1063.93 528.175M1144.73 529.429L1181.15 463.164M1144.73 529.429L1063.93 528.175M1144.73 529.429L1204.08 650.934M1181.15 463.164C1222.81 482.179 1255.53 502.35 1280.33 524.73M1063.93 528.175C1054.06 569.446 1051.29 605.463 1056.47 637.791M1204.08 650.934L1280.33 524.73M1204.08 650.934L1056.47 637.791M1204.08 650.934L1254.29 753.73M1280.33 524.73C1311.06 552.452 1329.64 583.564 1338.05 620.068M1056.47 637.791C1064.02 684.918 1088.45 724.206 1132.4 760.503M1254.29 753.73L1338.05 620.068M1254.29 753.73L1132.4 760.503" stroke="#33674D"/>
</g>
<g filter="url(#filter6_d)">
<path d="M411.648 -68.3155C444.968 -71.9152 475.236 -73.8839 502.753 -74.1092C548.552 -74.4844 586.729 -70.0304 618.668 -60.23C658.23 -48.0901 688.221 -27.7465 711.268 1.78376C749.646 50.958 768.772 125.607 780.788 230.269C699.199 233.023 634.818 229.102 584.238 215.971C529.067 201.649 490.314 176.37 463.557 136.849C445.201 109.738 432.49 75.9247 423.996 34.3486C417.859 4.31224 413.922 -29.7758 411.648 -68.3155Z" fill="#285B4B"/>
<path d="M780.788 230.269L691.841 158.322M780.788 230.269C768.772 125.607 749.646 50.958 711.268 1.78376M780.788 230.269C699.199 233.023 634.818 229.102 584.238 215.971M411.648 -68.3155L497.759 1.33617M411.648 -68.3155C444.968 -71.9152 475.236 -73.8839 502.753 -74.1092M411.648 -68.3155C413.922 -29.7758 417.859 4.31224 423.996 34.3486M497.759 1.33617L502.753 -74.1092M497.759 1.33617L423.996 34.3486M497.759 1.33617L602.893 86.376M502.753 -74.1092C548.552 -74.4844 586.729 -70.0304 618.668 -60.23M423.996 34.3486C432.49 75.9248 445.201 109.738 463.557 136.849M602.893 86.376L618.668 -60.23M602.893 86.376L463.557 136.849M602.893 86.376L691.841 158.322M618.668 -60.23C658.23 -48.0901 688.221 -27.7465 711.268 1.78376M463.557 136.849C490.314 176.37 529.067 201.649 584.238 215.971M691.841 158.322L711.268 1.78376M691.841 158.322L584.238 215.971" stroke="#33674D"/>
</g>
<g filter="url(#filter7_d)">
<path d="M242.691 823.632C249.798 838.873 255.551 854.125 259.879 869.069C270.084 904.304 272.353 937.776 265.811 965.33C259.275 992.86 243.957 1014.47 218.944 1026.13C193.941 1037.79 168.512 1035.19 144.356 1022C120.166 1008.78 97.2667 984.93 77.493 954.139C69.1058 941.078 61.2867 926.778 54.1748 911.526C48.045 898.381 42.7942 885.287 38.5067 872.432C27.3309 838.924 22.7147 807.082 26.0972 780.183C30.0163 749.018 44.6559 724.536 72.2806 711.648C98.9796 700.282 127.462 704.566 154.576 720.316C178.863 734.423 202.005 757.711 221.645 787.076C229.231 798.42 236.292 810.666 242.691 823.632Z" fill="#477D4B" stroke="#38694C" stroke-width="2"/>
</g>
<g filter="url(#filter8_d)">
<path d="M635.631 297.122C650.194 305.53 663.655 314.725 675.772 324.483C704.341 347.493 725.398 373.61 735.844 399.933C746.281 426.233 746.125 452.718 732.326 476.618C718.532 500.51 696.215 512.971 668.856 516.016C641.46 519.064 609.023 512.662 575.164 498.781C560.802 492.893 546.195 485.663 531.621 477.249C519.06 469.997 507.249 462.283 496.363 454.212C467.989 433.174 445.944 409.738 433.286 385.764C418.621 357.987 416.57 329.535 431.807 303.133C447.158 278.509 472.947 265.681 504.192 263.031C532.178 260.657 564.492 266.459 597.423 279.249C610.144 284.189 622.952 290.171 635.631 297.122Z" fill="#477D4B" stroke="#38694C" stroke-width="2"/>
</g>
<g filter="url(#filter9_d)">
<path d="M1626.08 98.3288C1631.83 114.131 1636.23 129.827 1639.24 145.091C1646.34 181.082 1645.68 214.623 1636.76 241.503C1627.85 268.358 1610.71 288.547 1584.78 297.986C1558.85 307.421 1533.75 302.621 1510.83 287.368C1487.89 272.094 1467.15 246.339 1450.14 213.941C1442.92 200.199 1436.38 185.272 1430.62 169.459C1425.66 155.829 1421.57 142.328 1418.42 129.148C1410.21 94.7933 1408.38 62.6695 1414.1 36.1682C1420.72 5.46326 1437.44 -17.6503 1466.08 -28.0817C1493.67 -37.0775 1521.67 -30.3273 1547.31 -12.2741C1570.27 3.89648 1591.3 29.1129 1608.3 60.0777C1614.87 72.0394 1620.84 84.8541 1626.08 98.3288Z" fill="#477D4B" stroke="#38694C" stroke-width="2"/>
</g>
<g filter="url(#filter10_d)">
<path d="M1859.49 25C1874.26 55.0793 1886.47 82.8489 1896.09 108.629C1912.11 151.538 1920.98 188.936 1922.69 222.3C1924.82 263.629 1915.96 298.768 1896.09 330.526C1863.01 383.408 1799.4 426.912 1705.16 474C1674.67 398.273 1656.33 336.434 1651.37 284.413C1645.96 227.671 1656.46 182.61 1684.45 143.948C1703.65 117.428 1731.07 93.9183 1767.24 71.716C1793.36 55.6762 1824.05 40.3184 1859.49 25Z" fill="#285B4B"/>
<path d="M1705.16 474L1742.35 365.81M1705.16 474C1799.4 426.912 1863.01 383.408 1896.09 330.526M1705.16 474C1674.67 398.273 1656.33 336.434 1651.37 284.413M1859.49 25L1823.49 129.74M1859.49 25C1874.26 55.0793 1886.47 82.8489 1896.09 108.629M1859.49 25C1824.05 40.3184 1793.36 55.6762 1767.24 71.716M1823.49 129.74L1896.09 108.629M1823.49 129.74L1767.24 71.716M1823.49 129.74L1779.53 257.619M1896.09 108.629C1912.11 151.538 1920.98 188.936 1922.69 222.3M1767.24 71.716C1731.07 93.9183 1703.65 117.428 1684.45 143.948M1779.53 257.619L1922.69 222.3M1779.53 257.619L1684.45 143.948M1779.53 257.619L1742.35 365.81M1922.69 222.3C1924.82 263.629 1915.96 298.768 1896.09 330.526M1684.45 143.948C1656.46 182.61 1645.96 227.671 1651.37 284.413M1742.35 365.81L1896.09 330.526M1742.35 365.81L1651.37 284.413" stroke="#33674D"/>
</g>
<g filter="url(#filter11_d)">
<path d="M310.326 496C323.048 520.988 333.551 544.057 341.835 565.474C355.622 601.12 363.259 632.187 364.735 659.904C366.563 694.238 358.937 723.429 341.835 749.811C313.357 793.742 258.606 829.882 177.483 869C151.234 806.091 135.452 754.719 131.181 711.504C126.524 664.366 135.562 626.932 159.653 594.815C176.178 572.783 199.787 553.253 230.917 534.809C253.406 521.484 279.821 508.726 310.326 496Z" fill="#285B4B"/>
<path d="M177.483 869L209.493 779.123M177.483 869C258.606 829.882 313.357 793.742 341.835 749.811M177.483 869C151.234 806.091 135.452 754.719 131.181 711.504M310.326 496L279.337 583.011M310.326 496C323.048 520.988 333.551 544.057 341.835 565.474M310.326 496C279.821 508.726 253.406 521.484 230.917 534.809M279.337 583.011L341.835 565.474M279.337 583.011L230.917 534.809M279.337 583.011L241.502 689.245M341.835 565.474C355.622 601.12 363.259 632.187 364.735 659.904M230.917 534.809C199.787 553.253 176.178 572.783 159.653 594.815M241.502 689.245L364.735 659.904M241.502 689.245L159.653 594.815M241.502 689.245L209.493 779.123M364.735 659.904C366.563 694.238 358.937 723.429 341.835 749.811M159.653 594.815C135.562 626.932 126.524 664.366 131.181 711.504M209.493 779.123L341.835 749.811M209.493 779.123L131.181 711.504" stroke="#33674D"/>
</g>
</g>
<defs>
<filter id="filter0_d" x="789.5" y="58.3541" width="264" height="415.333" filterUnits="userSpaceOnUse" color-interpolation-filters="sRGB">
<feFlood flood-opacity="0" result="BackgroundImageFix"/>
<feColorMatrix in="SourceAlpha" type="matrix" values="0 0 0 0 0 0 0 0 0 0 0 0 0 0 0 0 0 0 127 0"/>
<feOffset dx="10" dy="4"/>
<feGaussianBlur stdDeviation="2"/>
<feColorMatrix type="matrix" values="0 0 0 0 0 0 0 0 0 0 0 0 0 0 0 0 0 0 0.25 0"/>
<feBlend mode="normal" in2="BackgroundImageFix" result="effect1_dropShadow"/>
<feBlend mode="normal" in="SourceGraphic" in2="effect1_dropShadow" result="shape"/>
</filter>
<filter id="filter1_d" x="919.146" y="-4.82166" width="650.858" height="624.858" filterUnits="userSpaceOnUse" color-interpolation-filters="sRGB">
<feFlood flood-opacity="0" result="BackgroundImageFix"/>
<feColorMatrix in="SourceAlpha" type="matrix" values="0 0 0 0 0 0 0 0 0 0 0 0 0 0 0 0 0 0 127 0"/>
<feOffset dx="30" dy="4"/>
<feGaussianBlur stdDeviation="2"/>
<feColorMatrix type="matrix" values="0 0 0 0 0 0 0 0 0 0 0 0 0 0 0 0 0 0 0.25 0"/>
<feBlend mode="normal" in2="BackgroundImageFix" result="effect1_dropShadow"/>
<feBlend mode="normal" in="SourceGraphic" in2="effect1_dropShadow" result="shape"/>
</filter>
<filter id="filter2_d" x="597.5" y="339.293" width="352" height="562.369" filterUnits="userSpaceOnUse" color-interpolation-filters="sRGB">
<feFlood flood-opacity="0" result="BackgroundImageFix"/>
<feColorMatrix in="SourceAlpha" type="matrix" values="0 0 0 0 0 0 0 0 0 0 0 0 0 0 0 0 0 0 127 0"/>
<feOffset dx="30" dy="4"/>
<feGaussianBlur stdDeviation="2"/>
<feColorMatrix type="matrix" values="0 0 0 0 0 0 0 0 0 0 0 0 0 0 0 0 0 0 0.25 0"/>
<feBlend mode="normal" in2="BackgroundImageFix" result="effect1_dropShadow"/>
<feBlend mode="normal" in="SourceGraphic" in2="effect1_dropShadow" result="shape"/>
</filter>
<filter id="filter3_d" x="1306.17" y="397.63" width="464.646" height="625.784" filterUnits="userSpaceOnUse" color-interpolation-filters="sRGB">
<feFlood flood-opacity="0" result="BackgroundImageFix"/>
<feColorMatrix in="SourceAlpha" type="matrix" values="0 0 0 0 0 0 0 0 0 0 0 0 0 0 0 0 0 0 127 0"/>
<feOffset dx="10" dy="4"/>
<feGaussianBlur stdDeviation="2"/>
<feColorMatrix type="matrix" values="0 0 0 0 0 0 0 0 0 0 0 0 0 0 0 0 0 0 0.25 0"/>
<feBlend mode="normal" in2="BackgroundImageFix" result="effect1_dropShadow"/>
<feBlend mode="normal" in="SourceGraphic" in2="effect1_dropShadow" result="shape"/>
</filter>
<filter id="filter4_d" x="-75.8217" y="24.1782" width="630.858" height="624.858" filterUnits="userSpaceOnUse" color-interpolation-filters="sRGB">
<feFlood flood-opacity="0" result="BackgroundImageFix"/>
<feColorMatrix in="SourceAlpha" type="matrix" values="0 0 0 0 0 0 0 0 0 0 0 0 0 0 0 0 0 0 127 0"/>
<feOffset dx="10" dy="4"/>
<feGaussianBlur stdDeviation="2"/>
<feColorMatrix type="matrix" values="0 0 0 0 0 0 0 0 0 0 0 0 0 0 0 0 0 0 0.25 0"/>
<feBlend mode="normal" in2="BackgroundImageFix" result="effect1_dropShadow"/>
<feBlend mode="normal" in="SourceGraphic" in2="effect1_dropShadow" result="shape"/>
</filter>
<filter id="filter5_d" x="947.188" y="384.188" width="526.184" height="520.184" filterUnits="userSpaceOnUse" color-interpolation-filters="sRGB">
<feFlood flood-opacity="0" result="BackgroundImageFix"/>
<feColorMatrix in="SourceAlpha" type="matrix" values="0 0 0 0 0 0 0 0 0 0 0 0 0 0 0 0 0 0 127 0"/>
<feOffset dx="10" dy="4"/>
<feGaussianBlur stdDeviation="2"/>
<feColorMatrix type="matrix" values="0 0 0 0 0 0 0 0 0 0 0 0 0 0 0 0 0 0 0.25 0"/>
<feBlend mode="normal" in2="BackgroundImageFix" result="effect1_dropShadow"/>
<feBlend mode="normal" in="SourceGraphic" in2="effect1_dropShadow" result="shape"/>
</filter>
<filter id="filter6_d" x="339.22" y="-128.691" width="535.892" height="419.5" filterUnits="userSpaceOnUse" color-interpolation-filters="sRGB">
<feFlood flood-opacity="0" result="BackgroundImageFix"/>
<feColorMatrix in="SourceAlpha" type="matrix" values="0 0 0 0 0 0 0 0 0 0 0 0 0 0 0 0 0 0 127 0"/>
<feOffset dx="15" dy="4"/>
<feGaussianBlur stdDeviation="2"/>
<feColorMatrix type="matrix" values="0 0 0 0 0 0 0 0 0 0 0 0 0 0 0 0 0 0 0.25 0"/>
<feBlend mode="normal" in2="BackgroundImageFix" result="effect1_dropShadow"/>
<feBlend mode="normal" in="SourceGraphic" in2="effect1_dropShadow" result="shape"/>
</filter>
<filter id="filter7_d" x="-20.4784" y="665.048" width="351.818" height="414.051" filterUnits="userSpaceOnUse" color-interpolation-filters="sRGB">
<feFlood flood-opacity="0" result="BackgroundImageFix"/>
<feColorMatrix in="SourceAlpha" type="matrix" values="0 0 0 0 0 0 0 0 0 0 0 0 0 0 0 0 0 0 127 0"/>
<feOffset dx="10" dy="5"/>
<feGaussianBlur stdDeviation="2"/>
<feColorMatrix type="matrix" values="0 0 0 0 0 0 0 0 0 0 0 0 0 0 0 0 0 0 0.25 0"/>
<feBlend mode="normal" in2="BackgroundImageFix" result="effect1_dropShadow"/>
<feBlend mode="normal" in="SourceGraphic" in2="effect1_dropShadow" result="shape"/>
</filter>
<filter id="filter8_d" x="380" y="209" width="428.243" height="372.365" filterUnits="userSpaceOnUse" color-interpolation-filters="sRGB">
<feFlood flood-opacity="0" result="BackgroundImageFix"/>
<feColorMatrix in="SourceAlpha" type="matrix" values="0 0 0 0 0 0 0 0 0 0 0 0 0 0 0 0 0 0 127 0"/>
<feOffset dx="17" dy="12"/>
<feGaussianBlur stdDeviation="2"/>
<feColorMatrix type="matrix" values="0 0 0 0 0 0 0 0 0 0 0 0 0 0 0 0 0 0 0.25 0"/>
<feBlend mode="normal" in2="BackgroundImageFix" result="effect1_dropShadow"/>
<feBlend mode="normal" in="SourceGraphic" in2="effect1_dropShadow" result="shape"/>
</filter>
<filter id="filter9_d" x="1370" y="-66" width="337.7" height="415.777" filterUnits="userSpaceOnUse" color-interpolation-filters="sRGB">
<feFlood flood-opacity="0" result="BackgroundImageFix"/>
<feColorMatrix in="SourceAlpha" type="matrix" values="0 0 0 0 0 0 0 0 0 0 0 0 0 0 0 0 0 0 127 0"/>
<feOffset dx="17" dy="12"/>
<feGaussianBlur stdDeviation="2"/>
<feColorMatrix type="matrix" values="0 0 0 0 0 0 0 0 0 0 0 0 0 0 0 0 0 0 0.25 0"/>
<feBlend mode="normal" in2="BackgroundImageFix" result="effect1_dropShadow"/>
<feBlend mode="normal" in="SourceGraphic" in2="effect1_dropShadow" result="shape"/>
</filter>
<filter id="filter10_d" x="1649.5" y="24.3521" width="293" height="458.337" filterUnits="userSpaceOnUse" color-interpolation-filters="sRGB">
<feFlood flood-opacity="0" result="BackgroundImageFix"/>
<feColorMatrix in="SourceAlpha" type="matrix" values="0 0 0 0 0 0 0 0 0 0 0 0 0 0 0 0 0 0 127 0"/>
<feOffset dx="15" dy="4"/>
<feGaussianBlur stdDeviation="2"/>
<feColorMatrix type="matrix" values="0 0 0 0 0 0 0 0 0 0 0 0 0 0 0 0 0 0 0.25 0"/>
<feBlend mode="normal" in2="BackgroundImageFix" result="effect1_dropShadow"/>
<feBlend mode="normal" in="SourceGraphic" in2="effect1_dropShadow" result="shape"/>
</filter>
<filter id="filter11_d" x="129.5" y="495.36" width="270" height="382.32" filterUnits="userSpaceOnUse" color-interpolation-filters="sRGB">
<feFlood flood-opacity="0" result="BackgroundImageFix"/>
<feColorMatrix in="SourceAlpha" type="matrix" values="0 0 0 0 0 0 0 0 0 0 0 0 0 0 0 0 0 0 127 0"/>
<feOffset dx="30" dy="4"/>
<feGaussianBlur stdDeviation="2"/>
<feColorMatrix type="matrix" values="0 0 0 0 0 0 0 0 0 0 0 0 0 0 0 0 0 0 0.25 0"/>
<feBlend mode="normal" in2="BackgroundImageFix" result="effect1_dropShadow"/>
<feBlend mode="normal" in="SourceGraphic" in2="effect1_dropShadow" result="shape"/>
</filter>
<clipPath id="clip0">
<rect width="1920" height="1080" fill="white"/>
</clipPath>
</defs>
</svg>
