<svg id="Capa_1" enable-background="new 0 0 512 512" height="512" viewBox="0 0 512 512" width="512" xmlns="http://www.w3.org/2000/svg"><g><g><path d="m356.107 512h-258.047l6.295-30.658c5.178-25.244 24.846-44.429 49.252-49.596 4.286-.913 8.723-1.386 13.256-1.386h120.44c4.522 0 8.959.473 13.245 1.386 24.406 5.167 44.086 24.352 49.263 49.596z" fill="#da4a54"/><path d="m191.307 430.36c-2.686 0-5.317.473-7.863 1.386-14.502 5.167-26.179 24.352-29.261 49.596l-3.738 30.658h-52.39l6.295-30.658c5.178-25.244 24.846-44.429 49.252-49.596 4.286-.913 8.723-1.386 13.256-1.386z" fill="#c63d4f"/><path d="m262.779 370.742v59.619c0 19.712-15.984 35.696-35.696 35.696-19.723 0-35.707-15.984-35.707-35.696v-59.619z" fill="#ffcbbe"/><path d="m238.741 464.11c-3.652 1.257-7.573 1.944-11.655 1.944-19.723 0-35.707-15.984-35.707-35.696v-59.618h23.31v59.619c.001 15.64 10.055 28.928 24.052 33.751z" fill="#eaac9d"/><path d="m77.943 321.098c-25.74 0-46.606-20.866-46.606-46.606 0-3.543.395-6.993 1.144-10.309 6.046-26.777 45.461-22.385 45.461 5.066h298.275c0-27.451 39.415-31.842 45.461-5.066.749 3.316 1.144 6.766 1.144 10.309 0 25.74-20.866 46.606-46.606 46.606" fill="#eaac9d"/><path d="m77.949 291.735c-2.428 0-4.816-1.141-6.32-3.274-.162-.223-7.591-10.364-15.485-7.177-3.959 1.598-8.46-.317-10.056-4.274-1.597-3.957.317-8.46 4.274-10.056 8.13-3.28 16.985-1.958 24.934 3.724 5.364 3.835 8.628 8.4 8.983 8.908 2.442 3.499 1.585 8.316-1.914 10.758-1.347.94-2.889 1.391-4.416 1.391z" fill="#df9380"/><path d="m376.212 291.711c-1.538 0-3.09-.457-4.439-1.41-3.471-2.452-4.323-7.229-1.891-10.714.355-.508 3.619-5.073 8.983-8.908 7.948-5.682 16.803-7.005 24.934-3.724 3.957 1.596 5.871 6.099 4.274 10.056-1.596 3.957-6.099 5.872-10.056 4.274-7.946-3.204-15.412 7.076-15.487 7.18-1.511 2.114-3.898 3.246-6.318 3.246z" fill="#df9380"/><path d="m191.377 370.742h71.403v54.924h-71.403z" fill="#eaac9d"/><path d="m376.215 202.977v95.096c0 60.029-48.666 108.694-108.694 108.694h-80.88c-60.039 0-108.694-48.666-108.694-108.694v-95.096l140.8-58.216z" fill="#ffcbbe"/><path d="m376.215 202.977v41.382c-46.492-15.113-96.724-23.375-149.139-23.375-52.405 0-102.637 8.262-149.129 23.375v-41.382c39.064-32.348 91.49-52.148 149.129-52.148s110.075 19.8 149.139 52.148z" fill="#eaac9d"/><path d="m258.045 406.767h-71.403c-60.027 0-108.699-48.672-108.699-108.699v-153.311h71.403v153.311c-.001 60.027 48.661 108.699 108.699 108.699z" fill="#eaac9d"/><g fill="#404a4a"><path d="m150.568 237.085c-7.755 0-14.063 10.476-14.063 23.354 0 12.877 6.309 23.353 14.063 23.353 7.755 0 14.064-10.476 14.064-23.353 0-12.878-6.309-23.354-14.064-23.354z"/><path d="m303.592 237.085c-7.755 0-14.063 10.476-14.063 23.354 0 12.877 6.309 23.353 14.063 23.353 7.755 0 14.064-10.476 14.064-23.353 0-12.878-6.309-23.354-14.064-23.354z"/></g><g fill="#e490b7"><ellipse cx="314.93" cy="305.796" rx="24.413" ry="14.844"/><ellipse cx="139.231" cy="305.796" rx="24.413" ry="14.844"/></g><path d="m241.604 288.847h-29.045c-4.267 0-7.726-3.459-7.726-7.726s3.459-7.726 7.726-7.726h29.045c4.267 0 7.726 3.459 7.726 7.726 0 4.266-3.459 7.726-7.726 7.726z" fill="#eaac9d"/><path d="m227.081 337.756c-15.487 0-29.384-9.225-35.403-23.502-1.658-3.932.186-8.463 4.118-10.121 3.933-1.659 8.464.186 10.121 4.118 3.6 8.536 11.907 14.052 21.164 14.052 9.258 0 17.565-5.516 21.165-14.052 1.658-3.932 6.188-5.776 10.121-4.118 3.932 1.657 5.776 6.189 4.118 10.121-6.02 14.277-19.917 23.502-35.404 23.502z" fill="#da4a54"/><path d="m76.795 173.256c-.968-26.867-.886-53.734.216-80.601 2.04-49.686 41.805-89.451 91.501-91.47 39.044-1.576 78.088-1.576 117.142 0 49.686 2.019 89.461 41.784 91.501 91.47 1.143 27.856 1.174 55.723.113 83.579" fill="#f4dd45"/><path d="m227.047 0c-43.762 9.014-76.862 46.811-78.747 92.819-1.113 27.053-1.216 54.085-.309 81.137l-71.196-.701c-.968-26.867-.886-53.734.216-80.601 2.04-49.686 41.805-89.451 91.501-91.47 19.512-.793 39.023-1.184 58.535-1.184z" fill="#ecbe6b"/><path d="m390.586 220.119c-50.458-18.244-105.655-28.309-163.51-28.309-29.329 0-57.968 2.586-85.66 7.52h-.01c-26.929 4.78-52.951 11.796-77.83 20.789-11.394 4.121-20.913-9.354-13.217-18.708 24.755-30.081 59.009-53.611 98.846-67.085 24.189-8.19 50.438-12.671 77.871-12.671 72.607 0 136.942 31.41 176.717 79.757 7.706 9.353-1.813 22.827-13.207 18.707z" fill="#da4a54"/><path d="m141.406 199.33c-26.929 4.78-52.951 11.796-77.83 20.789-11.394 4.121-20.913-9.354-13.217-18.708 24.755-30.081 59.009-53.611 98.846-67.085-.001-.001-44.824 55.279-7.799 65.004z" fill="#c63d4f"/></g><g><path d="m461.432 349.194c-52.251-4.138-104.502-4.138-156.752 0-8.26.654-14.926 7.063-15.801 15.302-4.572 43.033-4.572 86.066 0 129.098.875 8.239 7.541 14.648 15.801 15.302 52.251 4.138 104.501 4.138 156.752 0 8.26-.654 14.926-7.063 15.801-15.302 4.572-43.033 4.572-86.066 0-129.098-.875-8.239-7.541-14.648-15.801-15.302z" fill="#f4dd45"/><path d="m314.751 509.642c-3.358-.231-6.717-.475-10.075-.744-8.255-.657-14.922-7.061-15.797-15.303-4.571-43.033-4.571-86.065 0-129.098.876-8.236 7.542-14.647 15.797-15.303 3.358-.263 6.716-.513 10.075-.744-3.102 2.921-5.184 6.904-5.66 11.395-4.903 46.135-4.903 92.269 0 138.404.476 4.488 2.558 8.478 5.66 11.393z" fill="#ecbe6b"/><path d="m411.199 346.492v85.922l-28.142-19.606-28.136 19.606v-85.922c18.761-.538 37.516-.538 56.278 0z" fill="#da4a54"/></g><path d="m416.323 471.814h-15.528c-12.74 0-23.068 10.328-23.068 23.068v17.118h61.664v-17.118c0-12.74-10.328-23.068-23.068-23.068z" fill="#ffcbbe"/><path d="m418.543 471.926c-11.713 1.102-20.861 10.961-20.861 22.952v17.122h-19.955v-17.122c0-12.733 10.333-23.066 23.066-23.066h15.535c.752.001 1.483.032 2.215.114z" fill="#eaac9d"/><circle cx="227.08" cy="66.545" fill="#da4a54" r="32.887"/></g></svg>